<svg width="27" height="28" viewBox="0 0 27 28" fill="none" xmlns="http://www.w3.org/2000/svg">
<path fill-rule="evenodd" clip-rule="evenodd" d="M13.4765 0C16.8951 0 19.6825 2.7672 19.7197 6.18123L20.0225 6.18263C23.8386 6.18263 26.9417 9.28438 26.9417 13.0977V20.7187C26.9417 24.5306 23.8386 27.6324 20.0225 27.6324H6.91918C3.10451 27.6324 0 24.5306 0 20.7187V13.0977C0 9.28438 3.10451 6.18263 6.91918 6.18263L7.20103 6.18139L7.20979 5.9127C7.29656 4.3453 7.94209 2.9074 9.04978 1.81131C10.2352 0.635548 11.8268 0.0483569 13.4765 0ZM20.0225 8.25507L19.7199 8.25383L19.7201 10.4396C19.7201 11.0116 19.2558 11.4758 18.6839 11.4758C18.1119 11.4758 17.6476 11.0116 17.6476 10.4396L17.6475 8.25383H9.27209L9.27222 10.4396C9.27222 11.0116 8.808 11.4758 8.23601 11.4758C7.66401 11.4758 7.19979 11.0116 7.19979 10.4396L7.19965 8.25383L6.91918 8.25507C4.24712 8.25507 2.07244 10.427 2.07244 13.0977V20.7187C2.07244 23.388 4.24712 25.5599 6.91918 25.5599H20.0225C22.6946 25.5599 24.8693 23.388 24.8693 20.7187V13.0977C24.8693 10.427 22.6946 8.25507 20.0225 8.25507ZM13.4724 2.07244C12.3519 2.11112 11.3018 2.49798 10.5088 3.28274C9.72723 4.05748 9.28919 5.08448 9.27268 6.18125L17.6447 6.18139L17.6405 6.00541C17.5134 3.81578 15.6933 2.07244 13.4724 2.07244Z" fill="black"/>
</svg>
