<svg width="22" height="28" viewBox="0 0 22 28" fill="none" xmlns="http://www.w3.org/2000/svg">
<path fill-rule="evenodd" clip-rule="evenodd" d="M22 22.3309C22 26.8761 15.7669 27.4015 11.0796 27.4015L10.7442 27.4012C7.75789 27.394 0.156494 27.2054 0.156494 22.3033C0.156494 17.8508 6.13913 17.2558 10.7907 17.2334L11.4151 17.233C14.4012 17.2402 22 17.4288 22 22.3309ZM11.0796 19.3012C5.20368 19.3012 2.22501 20.3106 2.22501 22.3033C2.22501 24.3139 5.20368 25.333 11.0796 25.333C16.9542 25.333 19.9315 24.3236 19.9315 22.3309C19.9315 20.3203 16.9542 19.3012 11.0796 19.3012ZM11.0796 0C15.1174 0 18.4008 3.28481 18.4008 7.32255C18.4008 11.3603 15.1174 14.6437 11.0796 14.6437H11.0355C7.00604 14.6313 3.74192 11.3451 3.75567 7.31841C3.75567 3.28481 7.04052 0 11.0796 0ZM11.0796 1.96923C8.12718 1.96923 5.72491 4.37009 5.72491 7.32255C5.71529 10.2654 8.0996 12.6648 11.0397 12.6759L11.0796 13.6605V12.6759C14.0307 12.6759 16.4316 10.2736 16.4316 7.32255C16.4316 4.37009 14.0307 1.96923 11.0796 1.96923Z" fill="#1D242B"/>
</svg>
